<svg xmlns="http://www.w3.org/2000/svg" width="367.0736083984375" height="376.8123474121094" viewBox="-179.8106231689453 -200.25401306152344 367.0736083984375 376.8123474121094"><title>Neo4j Graph Visualization</title><desc>Created using Neo4j (http://www.neo4j.com/)</desc><g class="layer relationships"><g class="relationship" transform="translate(35.03652899158776 45.21437118108189) rotate(321.416888778697)"><path class="outline" fill="#A5ABB6" stroke="none" d="M 21.40063509461097,12.933012701892217 L 21.90063509461097,12.06698729810778 A 111.30581987861666 111.30581987861666 0 0 0 64.24937477647545,26.18116825078691 L 64.12984670263391,27.17399907200658 A 112.30581987861666 112.30581987861666 0 0 1 21.40063509461097,12.933012701892217 Z M 86.19926881266248,27.64585489343277 L 86.12228505716266,26.648822546219733 A 111.30581987861666 111.30581987861666 0 0 0 129.03558635745557,14.357588754709097 L 127.64800281385436,11.697774492485678 L 135.4730835599104,11.563196196676838 L 130.88569774892386,17.904007771006988 L 129.49811420532265,15.24419350878357 A 112.30581987861666 112.30581987861666 0 0 1 86.19926881266248,27.64585489343277"/><text text-anchor="middle" pointer-events="none" font-size="8px" fill="#000000" x="75.1636241422356" y="30.453593610730707" font-family="sans-serif">road</text></g><g class="relationship" transform="translate(158.2629953685609 -53.096568412941025) rotate(180.44379753644284)"><path class="outline" fill="#A5ABB6" stroke="none" d="M 25 0.5 L 48.92396180933449 0.5 L 48.92396180933449 -0.5 L 25 -0.5 Z M 68.25989930933449 0.5 L 92.18386111866899 0.5 L 92.18386111866899 3.5 L 99.18386111866899 0 L 92.18386111866899 -3.5 L 92.18386111866899 -0.5 L 68.25989930933449 -0.5 Z"/><text text-anchor="middle" pointer-events="none" font-size="8px" fill="#000000" x="58.59193055933449" y="3" transform="rotate(180 58.59193055933449 0)" font-family="sans-serif">trek</text></g><g class="relationship" transform="translate(34.08285951771444 -54.05845323254649) rotate(404.178889370708)"><path class="outline" fill="#A5ABB6" stroke="none" d="M 25 0.5 L 56.79869729905272 0.5 L 56.79869729905272 -0.5 L 25 -0.5 Z M 76.13463479905272 0.5 L 107.93333209810544 0.5 L 107.93333209810544 3.5 L 114.93333209810544 0 L 107.93333209810544 -3.5 L 107.93333209810544 -0.5 L 76.13463479905272 -0.5 Z"/><text text-anchor="middle" pointer-events="none" font-size="8px" fill="#000000" x="66.46666604905272" y="3" font-family="sans-serif">trek</text></g><g class="relationship" transform="translate(35.03652899158776 45.21437118108189) rotate(321.416888778697)"><path class="outline" fill="#A5ABB6" stroke="none" d="M 25 0.5 L 65.65113245588618 0.5 L 65.65113245588618 -0.5 L 25 -0.5 Z M 84.98706995588618 0.5 L 125.63820241177237 0.5 L 125.63820241177237 3.5 L 132.63820241177237 0 L 125.63820241177237 -3.5 L 125.63820241177237 -0.5 L 84.98706995588618 -0.5 Z"/><text text-anchor="middle" pointer-events="none" font-size="8px" fill="#000000" x="75.31910120588618" y="3" font-family="sans-serif">trek</text></g><g class="relationship" transform="translate(35.03652899158776 45.21437118108189) rotate(321.416888778697)"><path class="outline" fill="#A5ABB6" stroke="none" d="M 21.40063509461097,-12.933012701892217 L 21.90063509461097,-12.06698729810778 A 111.30581987861666 111.30581987861666 0 0 1 44.932926786145856,-22.091742929924877 L 44.639854795091416,-23.047833306437155 A 112.30581987861666 112.30581987861666 0 0 0 21.40063509461097,-12.933012701892217 Z M 105.84780862422353,-24.356491466486446 L 105.59586920006114,-23.388748460026193 A 111.30581987861666 111.30581987861666 0 0 1 129.03558635745557,-14.357588754709097 L 127.64800281385436,-11.697774492485678 L 135.4730835599104,-11.563196196676838 L 130.88569774892386,-17.904007771006988 L 129.49811420532265,-15.24419350878357 A 112.30581987861666 112.30581987861666 0 0 0 105.84780862422353,-24.356491466486446"/><text text-anchor="middle" pointer-events="none" font-size="8px" fill="#000000" x="75.16362414223563" y="-24.453593610730707" font-family="sans-serif">PublicTransport</text></g><g class="relationship" transform="translate(158.2629953685609 -53.096568412941025) rotate(257.28728760112375)"><path class="outline" fill="#A5ABB6" stroke="none" d="M 24.018736134675446,-6.953439040707552 L 24.277555179777966,-5.987513214418485 A 133.83403298875783 133.83403298875783 0 0 1 47.40277966642395,-10.05162856417678 L 47.316750934593905,-11.047921220628552 A 134.83403298875783 134.83403298875783 0 0 0 24.018736134675446,-6.953439040707552 Z M 66.70596258732175,-11.322599149753898 L 66.64819074282146,-10.324269337526005 A 133.83403298875783 133.83403298875783 0 0 1 89.87926081055652,-6.916862017891811 L 89.18520172142311,-3.998252420704939 L 96.80502638551478,-5.78382574277835 L 90.80467292940105,-10.80834148080764 L 90.11061384026765,-7.889731883620767 A 134.83403298875783 134.83403298875783 0 0 0 66.70596258732175,-11.322599149753898"/><text text-anchor="middle" pointer-events="none" font-size="8px" fill="#000000" x="57.01349506681096" y="-8.034319536640766" transform="rotate(180 57.01349506681096 -11.034319536640766)" font-family="sans-serif">trek</text></g><g class="relationship" transform="translate(131.60751744556018 -171.25400847090776) rotate(529.5909065070407)"><path class="outline" fill="#A5ABB6" stroke="none" d="M 24.018736134675446,-6.953439040707552 L 24.277555179777966,-5.987513214418485 A 90.81114297019433 90.81114297019433 0 0 1 36.64712074406022,-8.396684359128685 L 36.524513678674126,-9.389139651581402 A 91.81114297019433 91.81114297019433 0 0 0 24.018736134675446,-6.953439040707552 Z M 55.92720945914089,-9.719734334793202 L 55.838483834912545,-8.723678230145836 A 90.81114297019433 90.81114297019433 0 0 1 68.28294333174009,-6.737303218875304 L 67.60565635439822,-3.814755982247108 L 75.2151013800962,-5.644058144515629 L 69.18599263486259,-10.634032867712898 L 68.50870565752072,-7.711485631084702 A 91.81114297019433 91.81114297019433 0 0 0 55.92720945914089,-9.719734334793202"/><text text-anchor="middle" pointer-events="none" font-size="8px" fill="#000000" x="46.22562065462628" y="-6.5685763207238494" transform="rotate(180 46.22562065462628 -9.56857632072385)" font-family="sans-serif">trek</text></g><g class="relationship" transform="translate(33.67649280186903 -153.26423525477003) rotate(422.8786551313733)"><path class="outline" fill="#A5ABB6" stroke="none" d="M 24.018736134675446,6.953439040707552 L 24.277555179777966,5.987513214418485 A 329.7068805066643 329.7068805066643 0 0 0 83.81884437647217,16.211549738096494 L 83.74061388658936,17.20848503712682 A 330.7068805066643 330.7068805066643 0 0 1 24.018736134675446,6.953439040707552 Z M 130.235961165338,17.578285903427513 L 130.1735978241898,16.580232390994013 A 329.7068805066643 329.7068805066643 0 0 0 189.8699780625919,7.3045529833178815 L 189.13971120146653,4.394791771200627 L 196.7811320343864,6.085557176044857 L 190.84366721075907,11.184234599474221 L 190.11340034963368,8.274473387356966 A 330.7068805066643 330.7068805066643 0 0 1 130.235961165338,17.578285903427513"/><text text-anchor="middle" pointer-events="none" font-size="8px" fill="#000000" x="106.98575693130284" y="20.711559082887447" font-family="sans-serif">twowheeler</text></g><g class="relationship" transform="translate(33.67649280186903 -153.26423525477003) rotate(422.8786551313733)"><path class="outline" fill="#A5ABB6" stroke="none" d="M 24.018736134675446,-6.953439040707552 L 24.277555179777966,-5.987513214418485 A 329.7068805066643 329.7068805066643 0 0 1 97.33921231988298,-16.993507476083778 L 97.30198906625387,-17.992814450636274 A 330.7068805066643 330.7068805066643 0 0 0 24.018736134675446,-6.953439040707552 Z M 116.66382607071147,-18.146808871938163 L 116.64250250192552,-17.1470362450803 A 329.7068805066643 329.7068805066643 0 0 1 189.8699780625919,-7.3045529833178815 L 189.13971120146653,-4.394791771200627 L 196.7811320343864,-6.085557176044857 L 190.84366721075907,-11.184234599474221 L 190.11340034963368,-8.274473387356966 A 330.7068805066643 330.7068805066643 0 0 0 116.66382607071147,-18.146808871938163"/><text text-anchor="middle" pointer-events="none" font-size="8px" fill="#000000" x="106.98575693130283" y="-14.711559082887447" font-family="sans-serif">trek</text></g><g class="relationship" transform="translate(131.60751744556018 -171.25400847090776) rotate(529.5909065070407)"><path class="outline" fill="#A5ABB6" stroke="none" d="M 24.018736134675446,6.953439040707552 L 24.277555179777966,5.987513214418485 A 90.81114297019433 90.81114297019433 0 0 0 25.998641006514763,6.430672662549767 L 25.75877432530113,7.4014785006263395 A 91.81114297019433 91.81114297019433 0 0 1 24.018736134675446,6.953439040707552 Z M 66.75441399267328,8.099986618376875 L 66.54775927854081,7.1215726829043575 A 90.81114297019433 90.81114297019433 0 0 0 68.28294333174009,6.737303218875304 L 67.60565635439822,3.814755982247108 L 75.2151013800962,5.644058144515629 L 69.18599263486259,10.634032867712898 L 68.50870565752072,7.711485631084702 A 91.81114297019433 91.81114297019433 0 0 1 66.75441399267328,8.099986618376875"/><text text-anchor="middle" pointer-events="none" font-size="8px" fill="#000000" x="46.22562065462628" y="12.56857632072385" transform="rotate(180 46.22562065462628 9.56857632072385)" font-family="sans-serif">twowhe…</text></g><g class="relationship" transform="translate(158.2629953685609 -53.096568412941025) rotate(257.28728760112375)"><path class="outline" fill="#A5ABB6" stroke="none" d="M 24.018736134675446,6.953439040707552 L 24.277555179777966,5.987513214418485 A 133.83403298875783 133.83403298875783 0 0 0 34.0204299935861,8.211830700840977 L 33.834409134387656,9.1943764961824 A 134.83403298875783 134.83403298875783 0 0 1 24.018736134675446,6.953439040707552 Z M 80.23539998421847,9.85171771790263 L 80.07728672667133,8.864296734842299 A 133.83403298875783 133.83403298875783 0 0 0 89.87926081055652,6.916862017891811 L 89.18520172142311,3.998252420704939 L 96.80502638551478,5.78382574277835 L 90.80467292940105,10.80834148080764 L 90.11061384026765,7.889731883620767 A 134.83403298875783 134.83403298875783 0 0 1 80.23539998421847,9.85171771790263"/><text text-anchor="middle" pointer-events="none" font-size="8px" fill="#000000" x="57.01349506681099" y="14.034319536640766" transform="rotate(180 57.01349506681099 11.034319536640766)" font-family="sans-serif">twowheeler</text></g><g class="relationship" transform="translate(35.03652899158776 45.21437118108189) rotate(239.7528947284664)"><path class="outline" fill="#A5ABB6" stroke="none" d="M 24.018736134675446,-6.953439040707552 L 24.277555179777966,-5.987513214418485 A 234.60029609031375 234.60029609031375 0 0 1 72.98095742483514,-13.673417795530696 L 72.9297400028197,-14.672105322078465 A 235.60029609031375 235.60029609031375 0 0 0 24.018736134675446,-6.953439040707552 Z M 92.30034795849134,-14.868086372000334 L 92.26934728368299,-13.868567008425288 A 234.60029609031375 234.60029609031375 0 0 1 141.11828723461062,-7.169642830285298 L 140.4006192472902,-4.2567486234910525 L 148.03465171501725,-5.980566561003389 L 142.07517788437116,-11.053501772677626 L 141.35750989705073,-8.14060756588338 A 235.60029609031375 235.60029609031375 0 0 0 92.30034795849134,-14.868086372000334"/><text text-anchor="middle" pointer-events="none" font-size="8px" fill="#000000" x="82.61808734048071" y="-11.469292631292575" transform="rotate(180 82.61808734048071 -14.469292631292575)" font-family="sans-serif">trek</text></g><g class="relationship" transform="translate(-51.760625192944026 -103.63644769659095) rotate(497.1483308496574)"><path class="outline" fill="#A5ABB6" stroke="none" d="M 21.40063509461097,-12.933012701892217 L 21.90063509461097,-12.06698729810778 A 88.35359747431312 88.35359747431312 0 0 1 52.99174437361465,-22.929717787336955 L 52.843638469246045,-23.918689294050452 A 89.35359747431312 89.35359747431312 0 0 0 21.40063509461097,-12.933012701892217 Z M 74.91588030778499,-24.46592111834056 L 74.81696491180936,-23.47082527148008 A 88.35359747431312 88.35359747431312 0 0 1 106.40817872600581,-14.162162659358971 L 105.03876946434117,-11.492945868975118 L 112.86458611384559,-11.411743847205429 L 108.23405774155869,-17.721118379870774 L 106.86464847989404,-15.051901589486922 A 89.35359747431312 89.35359747431312 0 0 0 74.91588030778499,-24.46592111834056"/><text text-anchor="middle" pointer-events="none" font-size="8px" fill="#000000" x="63.875184531228435" y="-21.376829117150862" transform="rotate(180 63.875184531228435 -24.376829117150862)" font-family="sans-serif">road</text></g><g class="relationship" transform="translate(-150.81061984887177 -11.749091305249113) rotate(347.1108646823336)"><path class="outline" fill="#A5ABB6" stroke="none" d="M 21.40063509461097,12.933012701892217 L 21.90063509461097,12.06698729810778 A 143.76766662701007 143.76766662701007 0 0 0 68.19909402461772,29.033256041988622 L 68.0211306829028,30.017293159685764 A 144.76766662701007 144.76766662701007 0 0 1 21.40063509461097,12.933012701892217 Z M 114.43832833433753,30.847294986797394 L 114.29565932262074,29.85752453204752 A 143.76766662701007 143.76766662701007 0 0 0 161.17108594653834,14.557329983976242 L 159.76492935126055,11.90728779005615 L 167.58887716489818,11.717971627314778 L 163.0459614069087,18.0907195758697 L 161.6398048116309,15.440677381949605 A 144.76766662701007 144.76766662701007 0 0 1 114.43832833433753,30.847294986797394"/><text text-anchor="middle" pointer-events="none" font-size="8px" fill="#000000" x="91.20518111431595" y="34.80514366612637" font-family="sans-serif">twowheeler</text></g><g class="relationship" transform="translate(-150.81061984887177 -11.749091305249113) rotate(347.1108646823336)"><path class="outline" fill="#A5ABB6" stroke="none" d="M 25 0.5 L 81.66831230711611 0.5 L 81.66831230711611 -0.5 L 25 -0.5 Z M 101.00424980711611 0.5 L 157.67256211423222 0.5 L 157.67256211423222 3.5 L 164.67256211423222 0 L 157.67256211423222 -3.5 L 157.67256211423222 -0.5 L 101.00424980711611 -0.5 Z"/><text text-anchor="middle" pointer-events="none" font-size="8px" fill="#000000" x="91.33628105711611" y="3" font-family="sans-serif">trek</text></g><g class="relationship" transform="translate(-150.81061984887177 -11.749091305249113) rotate(347.1108646823336)"><path class="outline" fill="#A5ABB6" stroke="none" d="M 21.40063509461097,-12.933012701892217 L 21.90063509461097,-12.06698729810778 A 143.76766662701007 143.76766662701007 0 0 1 80.2662673004149,-30.691245969685852 L 80.172239196427,-31.686815513043015 A 144.76766662701007 144.76766662701007 0 0 0 21.40063509461097,-12.933012701892217 Z M 102.23530026814561,-32.08133267322829 L 102.17692513468572,-31.083037955325025 A 143.76766662701007 143.76766662701007 0 0 1 161.17108594653834,-14.557329983976242 L 159.76492935126055,-11.90728779005615 L 167.58887716489818,-11.717971627314778 L 163.0459614069087,-18.0907195758697 L 161.6398048116309,-15.440677381949605 A 144.76766662701007 144.76766662701007 0 0 0 102.23530026814561,-32.08133267322829"/><text text-anchor="middle" pointer-events="none" font-size="8px" fill="#000000" x="91.20518111431596" y="-28.80514366612637" font-family="sans-serif">road</text></g><g class="relationship" transform="translate(-51.760625192944026 -103.63644769659095) rotate(497.1483308496574)"><path class="outline" fill="#A5ABB6" stroke="none" d="M 25 0.5 L 54.38606093352219 0.5 L 54.38606093352219 -0.5 L 25 -0.5 Z M 73.72199843352219 0.5 L 103.10805936704438 0.5 L 103.10805936704438 3.5 L 110.10805936704438 0 L 103.10805936704438 -3.5 L 103.10805936704438 -0.5 L 73.72199843352219 -0.5 Z"/><text text-anchor="middle" pointer-events="none" font-size="8px" fill="#000000" x="64.05402968352219" y="3" transform="rotate(180 64.05402968352219 0)" font-family="sans-serif">trek</text></g><g class="relationship" transform="translate(-51.760625192944026 -103.63644769659095) rotate(497.1483308496574)"><path class="outline" fill="#A5ABB6" stroke="none" d="M 21.40063509461097,12.933012701892217 L 21.90063509461097,12.06698729810778 A 88.35359747431312 88.35359747431312 0 0 0 41.129665156767196,20.308813246515754 L 40.84730236240273,21.268120940823835 A 89.35359747431312 89.35359747431312 0 0 1 21.40063509461097,12.933012701892217 Z M 87.02882671360729,22.41308845269124 L 86.79434938450073,21.440966864547534 A 88.35359747431312 88.35359747431312 0 0 0 106.40817872600581,14.162162659358971 L 105.03876946434117,11.492945868975118 L 112.86458611384559,11.411743847205429 L 108.23405774155869,17.721118379870774 L 106.86464847989404,15.051901589486922 A 89.35359747431312 89.35359747431312 0 0 1 87.02882671360729,22.41308845269124"/><text text-anchor="middle" pointer-events="none" font-size="8px" fill="#000000" x="63.87518453122846" y="27.376829117150862" transform="rotate(180 63.87518453122846 24.376829117150862)" font-family="sans-serif">twowheeler</text></g><g class="relationship" transform="translate(35.03652899158776 45.21437118108189) rotate(239.7528947284664)"><path class="outline" fill="#A5ABB6" stroke="none" d="M 24.018736134675446,6.953439040707552 L 24.277555179777966,5.987513214418485 A 234.60029609031375 234.60029609031375 0 0 0 71.6478661274035,13.60124689754096 L 71.59096631146252,14.599626790640713 A 235.60029609031375 235.60029609031375 0 0 1 24.018736134675446,6.953439040707552 Z M 93.6403140418915,14.822709841425194 L 93.6036259120772,13.823383077483214 A 234.60029609031375 234.60029609031375 0 0 0 141.11828723461062,7.169642830285298 L 140.4006192472902,4.2567486234910525 L 148.03465171501725,5.980566561003389 L 142.07517788437116,11.053501772677626 L 141.35750989705073,8.14060756588338 A 235.60029609031375 235.60029609031375 0 0 1 93.6403140418915,14.822709841425194"/><text text-anchor="middle" pointer-events="none" font-size="8px" fill="#000000" x="82.61808734048077" y="17.469292631292575" transform="rotate(180 82.61808734048077 14.469292631292575)" font-family="sans-serif">road</text></g><g class="relationship" transform="translate(158.2629953685609 -53.096568412941025) rotate(193.5303476186217)"><path class="outline" fill="#A5ABB6" stroke="none" d="M 25 0.5 L 94.8415222586249 0.5 L 94.8415222586249 -0.5 L 25 -0.5 Z M 114.1774597586249 0.5 L 184.0189820172498 0.5 L 184.0189820172498 3.5 L 191.0189820172498 0 L 184.0189820172498 -3.5 L 184.0189820172498 -0.5 L 114.1774597586249 -0.5 Z"/><text text-anchor="middle" pointer-events="none" font-size="8px" fill="#000000" x="104.5094910086249" y="3" transform="rotate(180 104.5094910086249 0)" font-family="sans-serif">trek</text></g><g class="relationship" transform="translate(131.60751744556018 -171.25400847090776) rotate(497.6065018396377)"><path class="outline" fill="#A5ABB6" stroke="none" d="M 24.018736134675446,-6.953439040707552 L 24.277555179777966,-5.987513214418485 A 380.482370432219 380.482370432219 0 0 1 110.38542897332411,-18.75105788404545 L 110.35292231608788,-19.750529403017026 A 381.482370432219 381.482370432219 0 0 0 24.018736134675446,-6.953439040707552 Z M 129.71166540593302,-19.888675052416772 L 129.69342596167073,-18.888841404916832 A 380.482370432219 380.482370432219 0 0 1 215.974684556259,-7.355480354788611 L 215.23966196787754,-4.446916827105404 L 222.88383655225007,-6.125188236512353 L 216.95471467410098,-11.23356505836622 L 216.21969208571952,-8.325001530683014 A 381.482370432219 381.482370432219 0 0 0 129.71166540593302,-19.888675052416772"/><text text-anchor="middle" pointer-events="none" font-size="8px" fill="#000000" x="120.03498535545732" y="-16.44243544938365" transform="rotate(180 120.03498535545732 -19.44243544938365)" font-family="sans-serif">trek</text></g><g class="relationship" transform="translate(-50.89985255129651 -4.639853828369844) rotate(299.6425181957868)"><path class="outline" fill="#A5ABB6" stroke="none" d="M 21.40063509461097,12.933012701892217 L 21.90063509461097,12.06698729810778 A 124.86944196316031 124.86944196316031 0 0 0 70.93134109169085,28.074814020733015 L 70.82399685459197,29.06903593497634 A 125.86944196316031 125.86944196316031 0 0 1 21.40063509461097,12.933012701892217 Z M 92.89081795621726,29.505222442851448 L 92.8228470353441,28.507535140178092 A 124.86944196316031 124.86944196316031 0 0 0 142.44784765449663,14.449798462363047 L 141.05168961939984,11.794474990347872 L 148.8762954283815,11.634650292473104 L 144.30939170129233,17.99022975838328 L 142.91323366619554,15.334906286368104 A 125.86944196316031 125.86944196316031 0 0 1 92.89081795621726,29.505222442851448"/><text text-anchor="middle" pointer-events="none" font-size="8px" fill="#000000" x="81.85770971181071" y="32.27183540687163" font-family="sans-serif">road</text></g><g class="relationship" transform="translate(-50.89985255129651 -4.639853828369844) rotate(427.6993107087072)"><path class="outline" fill="#A5ABB6" stroke="none" d="M 25 0.5 L 69.08308219550122 0.5 L 69.08308219550122 -0.5 L 25 -0.5 Z M 88.41901969550122 0.5 L 132.50210189100244 0.5 L 132.50210189100244 3.5 L 139.50210189100244 0 L 132.50210189100244 -3.5 L 132.50210189100244 -0.5 L 88.41901969550122 -0.5 Z"/><text text-anchor="middle" pointer-events="none" font-size="8px" fill="#000000" x="78.75105094550122" y="3" font-family="sans-serif">trek</text></g><g class="relationship" transform="translate(11.523314276753784 147.55833857126134) rotate(319.7386651183725)"><path class="outline" fill="#A5ABB6" stroke="none" d="M 25 0.5 L 67.3682829280441 0.5 L 67.3682829280441 -0.5 L 25 -0.5 Z M 86.7042204280441 0.5 L 129.0725033560882 0.5 L 129.0725033560882 3.5 L 136.0725033560882 0 L 129.0725033560882 -3.5 L 129.0725033560882 -0.5 L 86.7042204280441 -0.5 Z"/><text text-anchor="middle" pointer-events="none" font-size="8px" fill="#000000" x="77.0362516780441" y="3" font-family="sans-serif">trek</text></g><g class="relationship" transform="translate(-50.89985255129651 -4.639853828369844) rotate(299.6425181957868)"><path class="outline" fill="#A5ABB6" stroke="none" d="M 25 0.5 L 72.33402676425396 0.5 L 72.33402676425396 -0.5 L 25 -0.5 Z M 91.66996426425396 0.5 L 139.00399102850793 0.5 L 139.00399102850793 3.5 L 146.00399102850793 0 L 139.00399102850793 -3.5 L 139.00399102850793 -0.5 L 91.66996426425396 -0.5 Z"/><text text-anchor="middle" pointer-events="none" font-size="8px" fill="#000000" x="82.00199551425396" y="3" font-family="sans-serif">trek</text></g><g class="relationship" transform="translate(-50.89985255129651 -4.639853828369844) rotate(299.6425181957868)"><path class="outline" fill="#A5ABB6" stroke="none" d="M 21.40063509461097,-12.933012701892217 L 21.90063509461097,-12.06698729810778 A 124.86944196316031 124.86944196316031 0 0 1 58.906780408357236,-26.179751888084 L 58.70313910694632,-27.15879745411229 A 125.86944196316031 125.86944196316031 0 0 0 21.40063509461097,-12.933012701892217 Z M 105.07769612469815,-28.07546578557117 L 104.91290362442967,-27.089137527912868 A 124.86944196316031 124.86944196316031 0 0 1 142.44784765449663,-14.449798462363047 L 141.05168961939984,-11.794474990347872 L 148.8762954283815,-11.634650292473104 L 144.30939170129233,-17.99022975838328 L 142.91323366619554,-15.334906286368104 A 125.86944196316031 125.86944196316031 0 0 0 105.07769612469815,-28.07546578557117"/><text text-anchor="middle" pointer-events="none" font-size="8px" fill="#000000" x="81.85770971181067" y="-26.27183540687163" font-family="sans-serif">twowheeler</text></g><g class="relationship" transform="translate(131.60751744556018 -171.25400847090776) rotate(497.6065018396377)"><path class="outline" fill="#A5ABB6" stroke="none" d="M 24.018736134675446,6.953439040707552 L 24.277555179777966,5.987513214418485 A 380.482370432219 380.482370432219 0 0 0 96.85663565540408,18.069790757492058 L 96.78857204633707,19.067471741134057 A 381.482370432219 381.482370432219 0 0 1 24.018736134675446,6.953439040707552 Z M 143.28438247129915,19.399269828216006 L 143.23056414288033,18.40071908462494 A 380.482370432219 380.482370432219 0 0 0 215.974684556259,7.355480354788611 L 215.23966196787754,4.446916827105404 L 222.88383655225007,6.125188236512353 L 216.95471467410098,11.23356505836622 L 216.21969208571952,8.325001530683014 A 381.482370432219 381.482370432219 0 0 1 143.28438247129915,19.399269828216006"/><text text-anchor="middle" pointer-events="none" font-size="8px" fill="#000000" x="120.03498535545752" y="22.44243544938365" transform="rotate(180 120.03498535545752 19.44243544938365)" font-family="sans-serif">twowheeler</text></g></g><g class="layer nodes"><g class="node" aria-label="graph-node178" transform="translate(35.03652899158776,45.21437118108189)"><circle class="outline" cx="0" cy="0" r="25" fill="#57C7E3" stroke="#23b3d7" stroke-width="2px"/><text class="caption" text-anchor="middle" pointer-events="none" x="0" y="5" font-size="10px" fill="#2A2C34" font-family="sans-serif"> Darjeeling</text></g><g class="node" aria-label="graph-node180" transform="translate(134.4384875937855,43.46121322266636)"><circle class="outline" cx="0" cy="0" r="25" fill="#F16667" stroke="#eb2728" stroke-width="2px"/><text class="caption" text-anchor="middle" pointer-events="none" x="0" y="5" font-size="10px" fill="#FFFFFF" font-family="sans-serif"> Sandakp…</text></g><g class="node" aria-label="graph-node177" transform="translate(158.2629953685609,-53.096568412941025)"><circle class="outline" cx="0" cy="0" r="25" fill="#57C7E3" stroke="#23b3d7" stroke-width="2px"/><text class="caption" text-anchor="middle" pointer-events="none" x="0" y="5" font-size="10px" fill="#2A2C34" font-family="sans-serif"> Rimbik</text></g><g class="node" aria-label="graph-node179" transform="translate(34.08285951771444,-54.05845323254649)"><circle class="outline" cx="0" cy="0" r="25" fill="#D9C8AE" stroke="#c0a378" stroke-width="2px"/><text class="caption" text-anchor="middle" pointer-events="none" x="0" y="5" font-size="10px" fill="#2A2C34" font-family="sans-serif"> BhikeBh…</text></g><g class="node" aria-label="graph-node181" transform="translate(131.60751744556018,-171.25400847090776)"><circle class="outline" cx="0" cy="0" r="25" fill="#D9C8AE" stroke="#c0a378" stroke-width="2px"/><text class="caption" text-anchor="middle" pointer-events="none" x="0" y="5" font-size="10px" fill="#2A2C34" font-family="sans-serif"> Sirikhola</text></g><g class="node" aria-label="graph-node182" transform="translate(33.67649280186903,-153.26423525477003)"><circle class="outline" cx="0" cy="0" r="25" fill="#D9C8AE" stroke="#c0a378" stroke-width="2px"/><text class="caption" text-anchor="middle" pointer-events="none" x="0" y="5" font-size="10px" fill="#2A2C34" font-family="sans-serif"> Gurdum</text></g><g class="node" aria-label="graph-node183" transform="translate(-51.760625192944026,-103.63644769659095)"><circle class="outline" cx="0" cy="0" r="25" fill="#D9C8AE" stroke="#c0a378" stroke-width="2px"/><text class="caption" text-anchor="middle" pointer-events="none" x="0" y="5" font-size="10px" fill="#2A2C34" font-family="sans-serif"> Tumbling</text></g><g class="node" aria-label="graph-node184" transform="translate(-150.81061984887177,-11.749091305249113)"><circle class="outline" cx="0" cy="0" r="25" fill="#D9C8AE" stroke="#c0a378" stroke-width="2px"/><text class="caption" text-anchor="middle" pointer-events="none" x="0" y="5" font-size="10px" fill="#2A2C34" font-family="sans-serif"> Gairibus</text></g><g class="node" aria-label="graph-node185" transform="translate(-50.89985255129651,-4.639853828369844)"><circle class="outline" cx="0" cy="0" r="25" fill="#D9C8AE" stroke="#c0a378" stroke-width="2px"/><text class="caption" text-anchor="middle" pointer-events="none" x="0" y="5" font-size="10px" fill="#2A2C34" font-family="sans-serif"> Rammam</text></g><g class="node" aria-label="graph-node186" transform="translate(11.523314276753784,147.55833857126134)"><circle class="outline" cx="0" cy="0" r="25" fill="#F16667" stroke="#eb2728" stroke-width="2px"/><text class="caption" text-anchor="middle" pointer-events="none" x="0" y="5" font-size="10px" fill="#FFFFFF" font-family="sans-serif"> Sabargr…</text></g></g></svg>